<?xml version="1.0" encoding="utf-8"?>
<!-- Generator: Adobe Illustrator 25.4.1, SVG Export Plug-In . SVG Version: 6.00 Build 0)  -->
<svg version="1.1" id="Laag_1" xmlns="http://www.w3.org/2000/svg" xmlns:xlink="http://www.w3.org/1999/xlink" x="0px" y="0px"
	 viewBox="0 0 170.94 170.57" style="enable-background:new 0 0 170.94 170.57;" xml:space="preserve">
<style type="text/css">
	.st0{fill:#FFFFFF;}
	.st1{fill:#8EBF33;}
	.st2{fill:#82A831;}
	.st3{fill:#789B2C;stroke:#789B2B;stroke-width:0.5;stroke-miterlimit:10;}
</style>
<circle class="st0" cx="84.7" cy="86.65" r="66.23"/>
<path class="st1" d="M84.36,113.42c0,0-14.12-17.36-13.92-32.96s14.04-32.69,14.04-32.69S99.71,65.6,99.79,80.42
	S84.36,113.42,84.36,113.42z"/>
<path class="st2" d="M83.88,115.95c0,0,0.98-21.05,11.01-30.88s30.69-11.02,30.69-11.02s-0.49,22.13-9.83,31.67
	S83.88,115.95,83.88,115.95z"/>
<path class="st2" d="M84.14,115.76c0,0-21.02-1.52-30.59-11.8S43.32,73.01,43.32,73.01s22.11,1.05,31.41,10.64
	S84.14,115.76,84.14,115.76z"/>
<line class="st3" x1="84.23" y1="66.83" x2="84.36" y2="130.71"/>
<line class="st3" x1="104.63" y1="95.34" x2="84.38" y2="114.37"/>
<line class="st3" x1="64.12" y1="96.39" x2="84.96" y2="114.77"/>
<line class="st3" x1="90.61" y1="80.72" x2="83.86" y2="87.06"/>
<line class="st3" x1="106.35" y1="100.08" x2="98.95" y2="100.72"/>
<line class="st3" x1="69.87" y1="101.76" x2="62.46" y2="101.31"/>
<line class="st3" x1="93.08" y1="97.11" x2="92.69" y2="106.36"/>
<line class="st3" x1="75.06" y1="97.06" x2="75.32" y2="106.31"/>
<line class="st3" x1="77.21" y1="81.34" x2="84.57" y2="86.96"/>
</svg>
